<svg width="514" height="49" viewBox="0 0 514 49" fill="none" xmlns="http://www.w3.org/2000/svg">
<path d="M6.84 -3.33786e-06H23.64V8.4H10.2L9.99 8.82L21.19 29.26C23.4767 33.3667 24.62 36.4933 24.62 38.64C24.62 43.3533 23.0567 46.8067 19.93 49H1.38V40.88H15.87L16.08 40.46L3.48 17.85C1.66 14.5833 0.75 11.9233 0.75 9.87C0.75 5.01666 2.78 1.72666 6.84 -3.33786e-06ZM29.4987 49V-3.33786e-06H54.6287V8.4H39.0887V20.09H52.9487V28.21H39.0887V40.88H54.9087V49H29.4987ZM90.3588 -3.33786e-06L80.4188 49H67.2587L57.3188 -3.33786e-06H67.3988L71.2488 22.68L73.6288 37.38H74.0488L76.4288 22.68L80.2788 -3.33786e-06H90.3588ZM94.0983 49V-3.33786e-06H119.228V8.4H103.688V20.09H117.548V28.21H103.688V40.88H119.508V49H94.0983ZM146.768 49L133.678 21.91L133.328 22.05L133.748 30.31V49H124.928V-3.33786e-06H131.998L144.878 28.14L145.228 28L144.458 19.39V-3.33786e-06H153.278V49H146.768ZM180.577 49H167.207C164.08 45.8733 161.817 42.1867 160.417 37.94C159.063 33.6933 158.387 29.4467 158.387 25.2C158.387 14.3267 161.327 5.92666 167.207 -3.33786e-06H180.577C183.657 3.12666 185.897 6.81333 187.297 11.06C188.697 15.26 189.397 19.46 189.397 23.66C189.397 34.6733 186.457 43.12 180.577 49ZM176.937 8.4H170.917C168.863 12.6 167.837 17.9433 167.837 24.43C167.837 30.9167 168.84 36.4 170.847 40.88H177.007C179.013 35.7467 180.017 30.1 180.017 23.94C180.017 17.78 178.99 12.6 176.937 8.4ZM192.488 49L206.558 8.4H191.858V-3.33786e-06H216.848V6.51L202.358 49H192.488ZM249.624 26.6H249.344H249.624L253.334 11.27L256.344 -3.33786e-06H265.094L268.244 49H259.074L257.744 22.26H257.394L252.354 42H246.614L241.574 22.26H241.224L239.894 49H230.724L233.874 -3.33786e-06H242.624L245.634 11.27L249.344 26.6H249.624ZM285.923 49H278.573C276.52 46.3867 275.12 43.7733 274.373 41.16C273.627 38.5467 273.253 35.28 273.253 31.36V13.23H282.563V32.06C282.563 36.3067 283.403 39.5033 285.083 41.65H291.593V13.23H300.903V49H293.553L292.293 46.48C290.52 48.16 288.397 49 285.923 49ZM310.393 13.23H325.863V20.58H314.943L321.593 30.45C324.579 34.6967 326.236 37.6133 326.563 39.2C326.749 39.9467 326.843 40.7167 326.843 41.51C326.843 44.8233 325.606 47.32 323.133 49H305.283V41.65H318.093L310.603 30.66C310.276 30.1467 309.763 29.4233 309.063 28.49C308.409 27.5567 307.896 26.81 307.523 26.25C307.149 25.6433 306.893 25.2 306.753 24.92C306.613 24.64 306.426 24.29 306.193 23.87C305.959 23.4033 305.796 23.0067 305.703 22.68C305.516 21.7933 305.423 21.07 305.423 20.51C305.423 17.1033 307.079 14.6767 310.393 13.23ZM331.365 49V13.23H340.605V49H331.365ZM331.365 -3.33786e-06H340.605V9.45H331.365V-3.33786e-06ZM355.29 30.8C355.29 32.76 355.593 34.7667 356.2 36.82C356.806 38.8267 357.646 40.4367 358.72 41.65H369.22V49H353.89C348.383 44.6133 345.63 38.5467 345.63 30.8C345.63 23.0533 348.57 17.1967 354.45 13.23H369.22V20.58H358.72C356.433 22.96 355.29 26.3667 355.29 30.8ZM389.926 -3.33786e-06H406.726V8.4H393.286L393.076 8.82L404.276 29.26C406.563 33.3667 407.706 36.4933 407.706 38.64C407.706 43.3533 406.143 46.8067 403.016 49H384.466V40.88H398.956L399.166 40.46L386.566 17.85C384.746 14.5833 383.836 11.9233 383.836 9.87C383.836 5.01666 385.866 1.72666 389.926 -3.33786e-06ZM412.967 33.39V20.58H408.137V13.23H412.967V3.5H422.277V13.23H428.017V20.58H422.277V35.63C422.277 38.4767 422.767 40.4833 423.747 41.65H428.017V49H418.077C415.604 46.7133 414.111 44.24 413.597 41.58C413.177 39.34 412.967 36.61 412.967 33.39ZM453.27 49H438.01C433.344 44.66 431.01 38.7333 431.01 31.22C431.01 27.44 431.524 24.15 432.55 21.35C433.624 18.55 435.304 15.8433 437.59 13.23H453.97C456.397 16.03 458.054 18.76 458.94 21.42C459.827 24.0333 460.27 27.3 460.27 31.22C460.27 38.7333 457.937 44.66 453.27 49ZM442.98 41.65H448.3C449.98 38.3833 450.82 34.6733 450.82 30.52C450.82 26.3667 449.957 23.0533 448.23 20.58H442.98C441.3 22.96 440.46 26.3433 440.46 30.73C440.46 35.07 441.3 38.71 442.98 41.65ZM465.351 49V13.23H472.001L473.751 17.01C475.618 14.49 477.975 13.23 480.821 13.23H483.551V22.61H474.661V49H465.351ZM502.438 20.58H497.188C496.488 21.42 495.904 22.5867 495.438 24.08C495.018 25.5733 494.808 27.02 494.808 28.42H504.818C504.911 27.02 504.724 25.5733 504.258 24.08C503.791 22.54 503.184 21.3733 502.438 20.58ZM511.958 41.65V49H494.178C490.911 46.8067 488.601 44.1 487.248 40.88C485.941 37.6133 485.288 34.3233 485.288 31.01C485.288 23.3567 488.181 17.43 493.968 13.23H505.308C508.434 15.5167 510.558 17.9433 511.678 20.51C512.798 23.0767 513.358 25.6667 513.358 28.28C513.358 30.8933 513.148 33.1333 512.728 35H495.298C495.438 36.0733 495.834 37.31 496.488 38.71C497.188 40.0633 497.934 41.0433 498.728 41.65H511.958Z" fill="white"/>
</svg>
